<svg xmlns="http://www.w3.org/2000/svg" width="1200" height="300" viewBox="0 0 1200 300" role="img" aria-labelledby="title desc">
  <title id="title">OpenCV CSharp API</title>
  <desc id="desc">OpenCV 5 bindings for C# and .NET, illustrated as C# bringing a pixel image into focus in a dark theme.</desc>
  <defs>
    <filter id="shadow" x="-20%" y="-20%" width="140%" height="150%">
      <feDropShadow dx="0" dy="9" stdDeviation="11" flood-color="#000000" flood-opacity="0.38"/>
    </filter>
    <clipPath id="pixels">
      <rect x="698" y="82" width="116" height="138" rx="6"/>
    </clipPath>
    <clipPath id="result">
      <rect x="912" y="65" width="232" height="170" rx="6"/>
    </clipPath>
  </defs>

  <rect width="1200" height="300" fill="#0D1117"/>
  <rect x="0" y="0" width="8" height="300" fill="#9B7BFF"/>

  <text x="54" y="86" fill="#F3F6FA" font-family="-apple-system, BlinkMacSystemFont, 'Segoe UI', sans-serif" font-size="46" font-weight="750">OpenCV <tspan fill="#B69CFF">CSharp API</tspan></text>
  <text x="56" y="128" fill="#B8C5D4" font-family="-apple-system, BlinkMacSystemFont, 'Segoe UI', sans-serif" font-size="19" font-weight="500">OpenCV 5 bindings for C# and .NET</text>

  <g filter="url(#shadow)">
    <rect x="54" y="151" width="536" height="52" rx="8" fill="#151D29" stroke="#2B3A4D"/>
  </g>
  <circle cx="76" cy="177" r="4" fill="#FF7A85"/>
  <text x="91" y="183" fill="#F4F7FB" font-family="ui-monospace, SFMono-Regular, Consolas, 'Liberation Mono', monospace" font-size="15" font-weight="600">dotnet add package JYPPX.OpenCV.CSharp.API</text>

  <circle cx="61" cy="239" r="5" fill="#38BDF8"/>
  <text x="75" y="245" fill="#AAB8C8" font-family="-apple-system, BlinkMacSystemFont, 'Segoe UI', sans-serif" font-size="13" font-weight="700">COMPUTER VISION</text>
  <circle cx="225" cy="239" r="5" fill="#8BE05A"/>
  <text x="239" y="245" fill="#AAB8C8" font-family="-apple-system, BlinkMacSystemFont, 'Segoe UI', sans-serif" font-size="13" font-weight="700">MANAGED + NATIVE</text>

  <path d="M797 151H935" fill="none" stroke="#2A3A4D" stroke-width="8" stroke-linecap="round"/>
  <circle cx="818" cy="151" r="7" fill="#38BDF8"/>
  <circle cx="845" cy="151" r="7" fill="#8BE05A"/>
  <circle cx="872" cy="151" r="7" fill="#FF7A85"/>

  <g filter="url(#shadow)">
    <rect x="688" y="72" width="136" height="158" rx="8" fill="#172131" stroke="#304158" stroke-width="2"/>
  </g>
  <g clip-path="url(#pixels)">
    <rect x="698" y="82" width="116" height="138" fill="#17384B"/>
    <rect x="698" y="82" width="29" height="28" fill="#20516A"/>
    <rect x="727" y="82" width="29" height="28" fill="#286780"/>
    <rect x="756" y="82" width="29" height="28" fill="#1D475E"/>
    <rect x="785" y="82" width="29" height="28" fill="#286780"/>
    <rect x="698" y="110" width="29" height="28" fill="#286780"/>
    <rect x="727" y="110" width="29" height="28" fill="#1D475E"/>
    <rect x="756" y="110" width="29" height="28" fill="#286780"/>
    <rect x="785" y="110" width="29" height="28" fill="#20516A"/>
    <rect x="698" y="138" width="29" height="28" fill="#4F8E3A"/>
    <rect x="727" y="138" width="29" height="28" fill="#286780"/>
    <rect x="756" y="138" width="29" height="28" fill="#4F8E3A"/>
    <rect x="785" y="138" width="29" height="28" fill="#1D475E"/>
    <rect x="698" y="166" width="29" height="27" fill="#5EA940"/>
    <rect x="727" y="166" width="29" height="27" fill="#4F8E3A"/>
    <rect x="756" y="166" width="29" height="27" fill="#B94F5A"/>
    <rect x="785" y="166" width="29" height="27" fill="#4F8E3A"/>
    <rect x="698" y="193" width="29" height="27" fill="#4F8E3A"/>
    <rect x="727" y="193" width="29" height="27" fill="#5EA940"/>
    <rect x="756" y="193" width="29" height="27" fill="#4F8E3A"/>
    <rect x="785" y="193" width="29" height="27" fill="#5EA940"/>
  </g>

  <g filter="url(#shadow)">
    <polygon points="856,106 895,128 895,174 856,196 817,174 817,128" fill="#8A68E8"/>
  </g>
  <polygon points="856,116 886,133 886,169 856,186 826,169 826,133" fill="none" stroke="#D2C4FF" stroke-width="2"/>
  <text x="856" y="160" text-anchor="middle" fill="#FFFFFF" font-family="-apple-system, BlinkMacSystemFont, 'Segoe UI', sans-serif" font-size="25" font-weight="800">C#</text>

  <g filter="url(#shadow)">
    <rect x="902" y="55" width="252" height="190" rx="8" fill="#172131" stroke="#304158" stroke-width="2"/>
  </g>
  <g clip-path="url(#result)">
    <rect x="912" y="65" width="232" height="170" fill="#17384B"/>
    <circle cx="1106" cy="93" r="19" fill="#F5D95C"/>
    <path d="M912 153L958 111L1001 151L1031 125L1083 166L1144 126V235H912Z" fill="#236983"/>
    <path d="M912 177L959 141L998 169L1036 137L1097 180L1144 154V235H912Z" fill="#5BAE45"/>
    <path d="M912 205C953 186 979 193 1014 207C1050 221 1083 191 1144 185V235H912Z" fill="#34774D"/>
    <rect x="1022" y="155" width="49" height="56" rx="8" fill="#FF7A85"/>
    <path d="M1068 166H1080C1093 166 1093 190 1080 190H1069" fill="none" stroke="#C8515C" stroke-width="7"/>
    <path d="M1014 148H1028M1014 148V162M1078 148H1064M1078 148V162M1014 218H1028M1014 218V204M1078 218H1064M1078 218V204" fill="none" stroke="#B69CFF" stroke-width="4" stroke-linecap="round"/>
    <circle cx="1046" cy="181" r="4" fill="#FFFFFF"/>
    <circle cx="1032" cy="169" r="4" fill="#38BDF8"/>
    <circle cx="1060" cy="198" r="4" fill="#F5D95C"/>
  </g>
  <rect x="917" y="70" width="222" height="160" rx="4" fill="none" stroke="#D6E5F3" stroke-opacity="0.34" stroke-width="2"/>
</svg>
